<svg xmlns="http://www.w3.org/2000/svg" xmlns:xlink="http://www.w3.org/1999/xlink" width="500" zoomAndPan="magnify" viewBox="0 0 375 374.999991" height="500" preserveAspectRatio="xMidYMid meet" version="1.0"><defs><g/><clipPath id="b4e78ac99c"><path d="M 192.589844 111.945312 L 343.703125 111.945312 L 343.703125 263.054688 L 192.589844 263.054688 Z M 192.589844 111.945312 " clip-rule="nonzero"/></clipPath><clipPath id="5092dfe55b"><path d="M 0.589844 0.945312 L 151.703125 0.945312 L 151.703125 152.054688 L 0.589844 152.054688 Z M 0.589844 0.945312 " clip-rule="nonzero"/></clipPath><clipPath id="9b552a56d4"><rect x="0" width="152" y="0" height="153"/></clipPath><clipPath id="26ae06bc09"><path d="M 188.730469 108 L 347.203125 108 L 347.203125 267.609375 L 188.730469 267.609375 Z M 188.730469 108 " clip-rule="nonzero"/></clipPath><clipPath id="6d1f70f9a4"><path d="M 188.730469 219.855469 C 188.730469 158.460938 238.535156 108.433594 299.660156 108.433594 L 347.203125 108.433594 L 347.203125 156.1875 C 347.203125 217.582031 297.398438 267.609375 236.273438 267.609375 L 188.730469 267.609375 Z M 188.730469 219.855469 " clip-rule="nonzero"/></clipPath><clipPath id="d0a1f09cd5"><path d="M 0.730469 0.238281 L 159.203125 0.238281 L 159.203125 159.609375 L 0.730469 159.609375 Z M 0.730469 0.238281 " clip-rule="nonzero"/></clipPath><clipPath id="dfbf0eaffe"><path d="M 0.730469 111.855469 C 0.730469 50.460938 50.535156 0.433594 111.660156 0.433594 L 159.203125 0.433594 L 159.203125 48.1875 C 159.203125 109.582031 109.398438 159.609375 48.273438 159.609375 L 0.730469 159.609375 Z M 0.730469 111.855469 " clip-rule="nonzero"/></clipPath><clipPath id="4101d8dc22"><rect x="0" width="160" y="0" height="160"/></clipPath><clipPath id="0413b17189"><path d="M 214 134 L 322 134 L 322 241 L 214 241 Z M 214 134 " clip-rule="nonzero"/></clipPath><clipPath id="f69688cce2"><path d="M 161.296875 187.496094 L 268.148438 80.640625 L 375.003906 187.496094 L 268.148438 294.347656 Z M 161.296875 187.496094 " clip-rule="nonzero"/></clipPath><clipPath id="cd193c33c3"><path d="M 214.722656 134.066406 L 268.148438 176.476562 L 321.574219 134.066406 L 279.167969 187.496094 L 321.574219 240.921875 L 268.148438 198.511719 L 214.722656 240.921875 L 257.128906 187.496094 Z M 214.722656 134.066406 " clip-rule="nonzero"/></clipPath><clipPath id="023a803c2e"><path d="M 0.558594 0 L 107.601562 0 L 107.601562 106.960938 L 0.558594 106.960938 Z M 0.558594 0 " clip-rule="nonzero"/></clipPath><clipPath id="2331afa265"><path d="M -52.703125 53.496094 L 54.148438 -53.359375 L 161.003906 53.496094 L 54.148438 160.347656 Z M -52.703125 53.496094 " clip-rule="nonzero"/></clipPath><clipPath id="55d8504ba5"><path d="M 0.722656 0.0664062 L 54.148438 42.476562 L 107.574219 0.0664062 L 65.167969 53.496094 L 107.574219 106.921875 L 54.148438 64.511719 L 0.722656 106.921875 L 43.128906 53.496094 Z M 0.722656 0.0664062 " clip-rule="nonzero"/></clipPath><clipPath id="c09c2c50e9"><rect x="0" width="108" y="0" height="107"/></clipPath><clipPath id="cbebc69d8b"><rect x="0" width="168" y="0" height="141"/></clipPath></defs><rect x="-37.5" width="450" fill="#ffffff" y="-37.499999" height="449.999989" fill-opacity="1"/><rect x="-37.5" width="450" fill="#ffffff" y="-37.499999" height="449.999989" fill-opacity="1"/><g clip-path="url(#b4e78ac99c)"><g transform="matrix(1, 0, 0, 1, 192, 111)"><g clip-path="url(#9b552a56d4)"><g clip-path="url(#5092dfe55b)"><path fill="#000000" d="M 0.589844 0.945312 L 151.703125 0.945312 L 151.703125 152.054688 L 0.589844 152.054688 Z M 0.589844 0.945312 " fill-opacity="1" fill-rule="nonzero"/></g></g></g></g><g clip-path="url(#26ae06bc09)"><g clip-path="url(#6d1f70f9a4)"><g transform="matrix(1, 0, 0, 1, 188, 108)"><g clip-path="url(#4101d8dc22)"><g clip-path="url(#d0a1f09cd5)"><g clip-path="url(#dfbf0eaffe)"><path fill="#ffffff" d="M 0.730469 159.609375 L 0.730469 0.515625 L 159.203125 0.515625 L 159.203125 159.609375 Z M 0.730469 159.609375 " fill-opacity="1" fill-rule="nonzero"/></g></g></g></g></g></g><g clip-path="url(#0413b17189)"><g clip-path="url(#f69688cce2)"><g clip-path="url(#cd193c33c3)"><g transform="matrix(1, 0, 0, 1, 214, 134)"><g clip-path="url(#c09c2c50e9)"><g clip-path="url(#023a803c2e)"><g clip-path="url(#2331afa265)"><g clip-path="url(#55d8504ba5)"><path fill="#000000" d="M -52.703125 53.496094 L 54.148438 -53.359375 L 161.003906 53.496094 L 54.148438 160.347656 Z M -52.703125 53.496094 " fill-opacity="1" fill-rule="nonzero"/></g></g></g></g></g></g></g></g><g transform="matrix(1, 0, 0, 1, 18, 117)"><g clip-path="url(#cbebc69d8b)"><g fill="#1e1e1e" fill-opacity="1"><g transform="translate(0.0875195, 105.647985)"><g><path d="M 40.234375 -42.328125 C 37 -47.273438 31.863281 -50.222656 24.730469 -50.222656 C 11.320312 -50.222656 2.664062 -40.234375 2.664062 -25.207031 C 2.664062 -10.273438 11.507812 -0.191406 24.824219 -0.191406 C 31.675781 -0.191406 36.621094 -2.949219 39.855469 -7.515625 L 39.855469 -1.332031 C 39.855469 6.371094 35.667969 10.558594 27.773438 10.558594 C 21.210938 10.558594 17.40625 7.894531 16.835938 2.664062 L 5.042969 2.664062 C 5.800781 12.839844 13.410156 19.785156 27.585938 19.785156 C 43.5625 19.785156 51.839844 11.320312 51.839844 -1.617188 L 51.839844 -49.082031 L 40.234375 -49.082031 Z M 27.488281 -10.082031 C 19.785156 -10.082031 14.933594 -15.597656 14.933594 -25.109375 C 14.933594 -34.621094 19.785156 -40.328125 27.488281 -40.328125 C 35.289062 -40.328125 40.140625 -35.003906 40.140625 -25.207031 C 40.140625 -15.503906 35.289062 -10.082031 27.488281 -10.082031 Z M 27.488281 -10.082031 "/></g></g></g><g fill="#1e1e1e" fill-opacity="1"><g transform="translate(51.256288, 105.647985)"><g><path d="M 31.769531 -50.222656 C 24.824219 -50.222656 19.59375 -46.703125 16.457031 -42.042969 L 16.457031 -49.082031 L 4.851562 -49.082031 L 4.851562 0 L 16.835938 0 L 16.835938 -27.488281 C 16.835938 -36.238281 22.542969 -39.855469 27.773438 -39.855469 C 33.863281 -39.855469 37 -36.808594 37 -30.53125 L 37 0 L 48.984375 0 L 48.984375 -32.53125 C 48.984375 -44.230469 42.042969 -50.222656 31.769531 -50.222656 Z M 31.769531 -50.222656 "/></g></g></g><g fill="#1e1e1e" fill-opacity="1"><g transform="translate(99.571759, 105.647985)"><g><path d="M 16.742188 -54.789062 L 16.742188 -66.011719 L 4.851562 -66.011719 L 4.851562 -54.789062 Z M 16.835938 0 L 16.835938 -49.082031 L 4.851562 -49.082031 L 4.851562 0 Z M 16.835938 0 "/></g></g></g><g fill="#1e1e1e" fill-opacity="1"><g transform="translate(115.740037, 105.647985)"><g><path d="M 49.175781 -49.082031 L 35.765625 -49.082031 L 33.195312 -45.464844 C 30.628906 -41.660156 27.871094 -37.667969 25.394531 -33.863281 C 22.828125 -37.761719 20.261719 -41.566406 17.5 -45.464844 L 14.933594 -49.082031 L 1.238281 -49.082031 L 18.644531 -25.015625 L 0.285156 0 L 13.695312 0 L 15.503906 -2.566406 C 18.738281 -7.132812 21.972656 -11.890625 25.109375 -16.457031 C 28.25 -11.890625 31.390625 -7.230469 34.621094 -2.566406 L 36.429688 0 L 50.125 0 L 31.863281 -25.207031 Z M 49.175781 -49.082031 "/></g></g></g></g></g></svg>