<svg xmlns="http://www.w3.org/2000/svg" xmlns:xlink="http://www.w3.org/1999/xlink" width="500" zoomAndPan="magnify" viewBox="0 0 375 374.999991" height="500" preserveAspectRatio="xMidYMid meet" version="1.0"><defs><g/><clipPath id="3cca44b6bc"><path d="M 31.296875 111.945312 L 182.410156 111.945312 L 182.410156 263.054688 L 31.296875 263.054688 Z M 31.296875 111.945312 " clip-rule="nonzero"/></clipPath><clipPath id="b9f4c36a3c"><path d="M 0.296875 0.945312 L 151.410156 0.945312 L 151.410156 152.054688 L 0.296875 152.054688 Z M 0.296875 0.945312 " clip-rule="nonzero"/></clipPath><clipPath id="f876aa7bb5"><rect x="0" width="152" y="0" height="153"/></clipPath><clipPath id="226a85b650"><path d="M 27.4375 108 L 185.910156 108 L 185.910156 267.609375 L 27.4375 267.609375 Z M 27.4375 108 " clip-rule="nonzero"/></clipPath><clipPath id="22d072fc47"><path d="M 27.4375 219.855469 C 27.4375 158.460938 77.242188 108.433594 138.367188 108.433594 L 185.910156 108.433594 L 185.910156 156.1875 C 185.910156 217.582031 136.105469 267.609375 74.980469 267.609375 L 27.4375 267.609375 Z M 27.4375 219.855469 " clip-rule="nonzero"/></clipPath><clipPath id="6f943f531b"><path d="M 0.4375 0.238281 L 158.910156 0.238281 L 158.910156 159.609375 L 0.4375 159.609375 Z M 0.4375 0.238281 " clip-rule="nonzero"/></clipPath><clipPath id="6a3c5231be"><path d="M 0.4375 111.855469 C 0.4375 50.460938 50.242188 0.433594 111.367188 0.433594 L 158.910156 0.433594 L 158.910156 48.1875 C 158.910156 109.582031 109.105469 159.609375 47.980469 159.609375 L 0.4375 159.609375 Z M 0.4375 111.855469 " clip-rule="nonzero"/></clipPath><clipPath id="f95cf9932b"><rect x="0" width="159" y="0" height="160"/></clipPath><clipPath id="15db700107"><path d="M 53 134 L 161 134 L 161 241 L 53 241 Z M 53 134 " clip-rule="nonzero"/></clipPath><clipPath id="aaa2ffa975"><path d="M 0.00390625 187.496094 L 106.855469 80.640625 L 213.707031 187.496094 L 106.855469 294.347656 Z M 0.00390625 187.496094 " clip-rule="nonzero"/></clipPath><clipPath id="49f2953f07"><path d="M 53.429688 134.066406 L 106.855469 176.476562 L 160.28125 134.066406 L 117.875 187.496094 L 160.28125 240.921875 L 106.855469 198.511719 L 53.429688 240.921875 L 95.835938 187.496094 Z M 53.429688 134.066406 " clip-rule="nonzero"/></clipPath><clipPath id="07c9769364"><path d="M 0.28125 0 L 107.320312 0 L 107.320312 106.960938 L 0.28125 106.960938 Z M 0.28125 0 " clip-rule="nonzero"/></clipPath><clipPath id="5d2955224c"><path d="M -52.996094 53.496094 L 53.855469 -53.359375 L 160.707031 53.496094 L 53.855469 160.347656 Z M -52.996094 53.496094 " clip-rule="nonzero"/></clipPath><clipPath id="ee241a3fdb"><path d="M 0.429688 0.0664062 L 53.855469 42.476562 L 107.28125 0.0664062 L 64.875 53.496094 L 107.28125 106.921875 L 53.855469 64.511719 L 0.429688 106.921875 L 42.835938 53.496094 Z M 0.429688 0.0664062 " clip-rule="nonzero"/></clipPath><clipPath id="42961dbee1"><rect x="0" width="108" y="0" height="107"/></clipPath></defs><rect x="-37.5" width="450" fill="#ffffff" y="-37.499999" height="449.999989" fill-opacity="1"/><rect x="-37.5" width="450" fill="#ffffff" y="-37.499999" height="449.999989" fill-opacity="1"/><g clip-path="url(#3cca44b6bc)"><g transform="matrix(1, 0, 0, 1, 31, 111)"><g clip-path="url(#f876aa7bb5)"><g clip-path="url(#b9f4c36a3c)"><path fill="#000000" d="M 0.296875 0.945312 L 151.410156 0.945312 L 151.410156 152.054688 L 0.296875 152.054688 Z M 0.296875 0.945312 " fill-opacity="1" fill-rule="nonzero"/></g></g></g></g><g clip-path="url(#226a85b650)"><g clip-path="url(#22d072fc47)"><g transform="matrix(1, 0, 0, 1, 27, 108)"><g clip-path="url(#f95cf9932b)"><g clip-path="url(#6f943f531b)"><g clip-path="url(#6a3c5231be)"><path fill="#ffffff" d="M 0.4375 159.609375 L 0.4375 0.515625 L 158.910156 0.515625 L 158.910156 159.609375 Z M 0.4375 159.609375 " fill-opacity="1" fill-rule="nonzero"/></g></g></g></g></g></g><g clip-path="url(#15db700107)"><g clip-path="url(#aaa2ffa975)"><g clip-path="url(#49f2953f07)"><g transform="matrix(1, 0, 0, 1, 53, 134)"><g clip-path="url(#42961dbee1)"><g clip-path="url(#07c9769364)"><g clip-path="url(#5d2955224c)"><g clip-path="url(#ee241a3fdb)"><path fill="#000000" d="M -52.996094 53.496094 L 53.855469 -53.359375 L 160.707031 53.496094 L 53.855469 160.347656 Z M -52.996094 53.496094 " fill-opacity="1" fill-rule="nonzero"/></g></g></g></g></g></g></g></g><g fill="#1e1e1e" fill-opacity="1"><g transform="translate(190.835631, 223.124985)"><g><path d="M 40.234375 -42.328125 C 37 -47.273438 31.863281 -50.222656 24.730469 -50.222656 C 11.320312 -50.222656 2.664062 -40.234375 2.664062 -25.207031 C 2.664062 -10.273438 11.507812 -0.191406 24.824219 -0.191406 C 31.671875 -0.191406 36.621094 -2.949219 39.851562 -7.515625 L 39.851562 -1.332031 C 39.851562 6.371094 35.667969 10.558594 27.773438 10.558594 C 21.210938 10.558594 17.40625 7.894531 16.835938 2.664062 L 5.042969 2.664062 C 5.800781 12.839844 13.410156 19.785156 27.582031 19.785156 C 43.5625 19.785156 51.835938 11.320312 51.835938 -1.617188 L 51.835938 -49.078125 L 40.234375 -49.078125 Z M 27.488281 -10.082031 C 19.785156 -10.082031 14.933594 -15.597656 14.933594 -25.109375 C 14.933594 -34.621094 19.785156 -40.328125 27.488281 -40.328125 C 35.289062 -40.328125 40.136719 -35.003906 40.136719 -25.207031 C 40.136719 -15.503906 35.289062 -10.082031 27.488281 -10.082031 Z M 27.488281 -10.082031 "/></g></g></g><g fill="#1e1e1e" fill-opacity="1"><g transform="translate(242.004005, 223.124985)"><g><path d="M 31.769531 -50.222656 C 24.824219 -50.222656 19.59375 -46.703125 16.453125 -42.039062 L 16.453125 -49.078125 L 4.851562 -49.078125 L 4.851562 0 L 16.835938 0 L 16.835938 -27.488281 C 16.835938 -36.238281 22.542969 -39.851562 27.773438 -39.851562 C 33.859375 -39.851562 37 -36.808594 37 -30.53125 L 37 0 L 48.984375 0 L 48.984375 -32.53125 C 48.984375 -44.226562 42.039062 -50.222656 31.769531 -50.222656 Z M 31.769531 -50.222656 "/></g></g></g><g fill="#1e1e1e" fill-opacity="1"><g transform="translate(290.319092, 223.124985)"><g><path d="M 16.742188 -54.785156 L 16.742188 -66.011719 L 4.851562 -66.011719 L 4.851562 -54.785156 Z M 16.835938 0 L 16.835938 -49.078125 L 4.851562 -49.078125 L 4.851562 0 Z M 16.835938 0 "/></g></g></g><g fill="#1e1e1e" fill-opacity="1"><g transform="translate(306.487223, 223.124985)"><g><path d="M 49.175781 -49.078125 L 35.761719 -49.078125 L 33.195312 -45.464844 C 30.628906 -41.660156 27.867188 -37.664062 25.394531 -33.859375 C 22.828125 -37.761719 20.257812 -41.566406 17.5 -45.464844 L 14.933594 -49.078125 L 1.238281 -49.078125 L 18.640625 -25.015625 L 0.285156 0 L 13.695312 0 L 15.503906 -2.566406 C 18.738281 -7.132812 21.972656 -11.890625 25.109375 -16.453125 C 28.25 -11.890625 31.386719 -7.230469 34.621094 -2.566406 L 36.429688 0 L 50.125 0 L 31.863281 -25.207031 Z M 49.175781 -49.078125 "/></g></g></g></svg>